<svg width="149" height="38" viewBox="0 0 149 38" fill="none" xmlns="http://www.w3.org/2000/svg">
<path d="M29.42 19.5V5.5H31.92L36.66 14.82L41.38 5.5H43.88V19.5H41.76V9.16L37.48 17.5H35.84L31.54 9.18V19.5H29.42ZM50.3247 19.5V5.5H52.4447V19.5H50.3247ZM58.8856 19.5V5.5H61.3856L66.1256 14.82L70.8456 5.5H73.3456V19.5H71.2256V9.16L66.9456 17.5H65.3056L61.0056 9.18V19.5H58.8856ZM79.7903 19.5V5.5H81.9103V19.5H79.7903ZM88.3513 19.5V5.5H90.4713L97.4913 16.04V5.5H99.6113V19.5H97.4913L90.4713 8.96V19.5H88.3513ZM112.513 19.74C111.126 19.74 109.913 19.4333 108.873 18.82C107.833 18.2067 107.019 17.36 106.433 16.28C105.846 15.1867 105.553 13.9267 105.553 12.5C105.553 11.0733 105.846 9.82 106.433 8.74C107.019 7.64667 107.833 6.79333 108.873 6.18C109.913 5.56667 111.126 5.26 112.513 5.26C113.899 5.26 115.113 5.56667 116.153 6.18C117.193 6.79333 117.999 7.64667 118.573 8.74C119.159 9.82 119.453 11.0733 119.453 12.5C119.453 13.9267 119.159 15.1867 118.573 16.28C117.999 17.36 117.193 18.2067 116.153 18.82C115.113 19.4333 113.899 19.74 112.513 19.74ZM112.513 17.84C113.473 17.84 114.306 17.6267 115.013 17.2C115.733 16.7733 116.293 16.16 116.693 15.36C117.093 14.56 117.293 13.6067 117.293 12.5C117.293 11.3933 117.093 10.44 116.693 9.64C116.293 8.84 115.733 8.22667 115.013 7.8C114.306 7.37333 113.473 7.16 112.513 7.16C111.553 7.16 110.713 7.37333 109.993 7.8C109.273 8.22667 108.713 8.84 108.313 9.64C107.926 10.44 107.733 11.3933 107.733 12.5C107.733 13.6067 107.926 14.56 108.313 15.36C108.713 16.16 109.273 16.7733 109.993 17.2C110.713 17.6267 111.553 17.84 112.513 17.84Z" fill="#121212"/>
<path d="M0.592 35.5V29.9H2.4C2.83733 29.9 3.19467 29.972 3.472 30.116C3.74933 30.26 3.95467 30.4573 4.088 30.708C4.22133 30.9587 4.288 31.236 4.288 31.54C4.288 31.892 4.192 32.2093 4 32.492C3.81333 32.7747 3.52 32.9747 3.12 33.092L4.344 35.5H3.552L2.416 33.188H2.368H1.264V35.5H0.592ZM1.264 32.66H2.352C2.784 32.66 3.09867 32.556 3.296 32.348C3.49333 32.14 3.592 31.8733 3.592 31.548C3.592 31.2173 3.49333 30.956 3.296 30.764C3.104 30.5667 2.78667 30.468 2.344 30.468H1.264V32.66ZM6.77419 35.5V29.9H10.2382V30.452H7.44619V32.404H9.99819V32.948H7.44619V34.948H10.2382V35.5H6.77419ZM14.5138 35.596C14.1031 35.596 13.7458 35.5213 13.4418 35.372C13.1378 35.2227 12.9031 35.0147 12.7378 34.748C12.5725 34.4813 12.4898 34.172 12.4898 33.82H13.1938C13.1938 34.0387 13.2445 34.2413 13.3458 34.428C13.4471 34.6093 13.5938 34.756 13.7858 34.868C13.9831 34.9747 14.2258 35.028 14.5138 35.028C14.8925 35.028 15.1858 34.9373 15.3938 34.756C15.6018 34.5747 15.7058 34.348 15.7058 34.076C15.7058 33.852 15.6578 33.6733 15.5618 33.54C15.4658 33.4013 15.3351 33.2893 15.1698 33.204C15.0098 33.1187 14.8231 33.044 14.6098 32.98C14.4018 32.916 14.1831 32.844 13.9538 32.764C13.5218 32.6147 13.2018 32.4307 12.9938 32.212C12.7858 31.988 12.6818 31.6973 12.6818 31.34C12.6765 31.0413 12.7458 30.7773 12.8898 30.548C13.0338 30.3133 13.2365 30.132 13.4978 30.004C13.7645 29.8707 14.0791 29.804 14.4418 29.804C14.7991 29.804 15.1085 29.8707 15.3698 30.004C15.6365 30.1373 15.8418 30.3213 15.9858 30.556C16.1351 30.7907 16.2125 31.0573 16.2178 31.356H15.5138C15.5138 31.2013 15.4738 31.0493 15.3938 30.9C15.3138 30.7453 15.1911 30.62 15.0258 30.524C14.8658 30.428 14.6631 30.38 14.4178 30.38C14.1138 30.3747 13.8631 30.452 13.6658 30.612C13.4738 30.772 13.3778 30.9933 13.3778 31.276C13.3778 31.516 13.4445 31.7 13.5778 31.828C13.7165 31.956 13.9085 32.0627 14.1538 32.148C14.3991 32.228 14.6818 32.3213 15.0018 32.428C15.2685 32.524 15.5085 32.636 15.7218 32.764C15.9351 32.892 16.1005 33.0573 16.2178 33.26C16.3405 33.4627 16.4018 33.7213 16.4018 34.036C16.4018 34.3027 16.3325 34.556 16.1938 34.796C16.0551 35.0307 15.8445 35.2227 15.5618 35.372C15.2845 35.5213 14.9351 35.596 14.5138 35.596ZM19.974 35.5V30.452H18.302V29.9H22.318V30.452H20.646V35.5H19.974ZM23.5938 35.5L25.6578 29.9H26.3698L28.4258 35.5H27.7138L27.2018 34.06H24.8178L24.2978 35.5H23.5938ZM25.0178 33.516H27.0018L26.0098 30.748L25.0178 33.516ZM32.4801 35.596C32.0961 35.596 31.7467 35.5213 31.4321 35.372C31.1227 35.2173 30.8747 34.98 30.6881 34.66C30.5014 34.34 30.4081 33.932 30.4081 33.436V29.9H31.0801V33.444C31.0801 33.988 31.2107 34.3827 31.4721 34.628C31.7334 34.8733 32.0747 34.996 32.4961 34.996C32.9174 34.996 33.2561 34.8733 33.5121 34.628C33.7681 34.3827 33.8961 33.988 33.8961 33.444V29.9H34.5681V33.436C34.5681 33.932 34.4747 34.34 34.2881 34.66C34.1014 34.98 33.8507 35.2173 33.5361 35.372C33.2214 35.5213 32.8694 35.596 32.4801 35.596ZM37.1461 35.5V29.9H38.9541C39.3914 29.9 39.7487 29.972 40.0261 30.116C40.3034 30.26 40.5087 30.4573 40.6421 30.708C40.7754 30.9587 40.8421 31.236 40.8421 31.54C40.8421 31.892 40.7461 32.2093 40.5541 32.492C40.3674 32.7747 40.0741 32.9747 39.6741 33.092L40.8981 35.5H40.1061L38.9701 33.188H38.9221H37.8181V35.5H37.1461ZM37.8181 32.66H38.9061C39.3381 32.66 39.6527 32.556 39.8501 32.348C40.0474 32.14 40.1461 31.8733 40.1461 31.548C40.1461 31.2173 40.0474 30.956 39.8501 30.764C39.6581 30.5667 39.3407 30.468 38.8981 30.468H37.8181V32.66ZM42.9763 35.5L45.0403 29.9H45.7523L47.8083 35.5H47.0963L46.5843 34.06H44.2003L43.6803 35.5H42.9763ZM44.4003 33.516H46.3843L45.3923 30.748L44.4003 33.516ZM50.0808 35.5V29.9H50.7528L53.7368 34.388V29.9H54.4088V35.5H53.7368L50.7528 31.012V35.5H50.0808ZM58.3484 35.5V30.452H56.6764V29.9H60.6924V30.452H59.0204V35.5H58.3484ZM62.4345 33.46V32.892H65.6025V33.46H62.4345ZM68.0961 35.5V29.9H68.7681V32.372H71.6721V29.9H72.3441V35.5H71.6721V32.924H68.7681V35.5H68.0961ZM77.5097 35.596C76.9604 35.596 76.4777 35.476 76.0617 35.236C75.6511 34.9907 75.3284 34.6493 75.0937 34.212C74.8644 33.7747 74.7497 33.2707 74.7497 32.7C74.7497 32.1293 74.8644 31.628 75.0937 31.196C75.3284 30.7587 75.6511 30.4173 76.0617 30.172C76.4777 29.9267 76.9604 29.804 77.5097 29.804C78.0644 29.804 78.5471 29.9267 78.9577 30.172C79.3737 30.4173 79.6964 30.7587 79.9257 31.196C80.1551 31.628 80.2697 32.1293 80.2697 32.7C80.2697 33.2707 80.1551 33.7747 79.9257 34.212C79.6964 34.6493 79.3737 34.9907 78.9577 35.236C78.5471 35.476 78.0644 35.596 77.5097 35.596ZM77.5097 35.004C77.9204 35.004 78.2804 34.9133 78.5897 34.732C78.9044 34.5453 79.1471 34.2813 79.3177 33.94C79.4937 33.5933 79.5817 33.18 79.5817 32.7C79.5817 32.22 79.4937 31.8093 79.3177 31.468C79.1471 31.1267 78.9044 30.8653 78.5897 30.684C78.2804 30.4973 77.9204 30.404 77.5097 30.404C77.0991 30.404 76.7364 30.4973 76.4217 30.684C76.1124 30.8653 75.8697 31.1267 75.6937 31.468C75.5231 31.8093 75.4377 32.22 75.4377 32.7C75.4377 33.18 75.5231 33.5933 75.6937 33.94C75.8697 34.2813 76.1124 34.5453 76.4217 34.732C76.7364 34.9133 77.0991 35.004 77.5097 35.004ZM83.7021 35.5V30.452H82.0301V29.9H86.0461V30.452H84.3741V35.5H83.7021ZM88.3067 35.5V29.9H91.7707V30.452H88.9787V32.404H91.5307V32.948H88.9787V34.948H91.7707V35.5H88.3067ZM94.2623 35.5V29.9H94.9343V34.964H97.5423V35.5H94.2623ZM105.919 35.596C105.369 35.596 104.895 35.476 104.495 35.236C104.1 34.9907 103.793 34.652 103.575 34.22C103.356 33.7827 103.247 33.276 103.247 32.7C103.247 32.1293 103.356 31.628 103.575 31.196C103.793 30.7587 104.1 30.4173 104.495 30.172C104.895 29.9267 105.369 29.804 105.919 29.804C106.559 29.804 107.079 29.9587 107.479 30.268C107.884 30.572 108.143 30.9987 108.255 31.548H107.511C107.425 31.2013 107.249 30.924 106.983 30.716C106.721 30.5027 106.367 30.396 105.919 30.396C105.519 30.396 105.169 30.4893 104.871 30.676C104.572 30.8573 104.34 31.1213 104.175 31.468C104.015 31.8093 103.935 32.22 103.935 32.7C103.935 33.18 104.015 33.5933 104.175 33.94C104.34 34.2813 104.572 34.5453 104.871 34.732C105.169 34.9133 105.519 35.004 105.919 35.004C106.367 35.004 106.721 34.9027 106.983 34.7C107.249 34.492 107.425 34.2173 107.511 33.876H108.255C108.143 34.4147 107.884 34.836 107.479 35.14C107.079 35.444 106.559 35.596 105.919 35.596ZM113.204 35.596C112.655 35.596 112.172 35.476 111.756 35.236C111.346 34.9907 111.023 34.6493 110.788 34.212C110.559 33.7747 110.444 33.2707 110.444 32.7C110.444 32.1293 110.559 31.628 110.788 31.196C111.023 30.7587 111.346 30.4173 111.756 30.172C112.172 29.9267 112.655 29.804 113.204 29.804C113.759 29.804 114.242 29.9267 114.652 30.172C115.068 30.4173 115.391 30.7587 115.62 31.196C115.85 31.628 115.964 32.1293 115.964 32.7C115.964 33.2707 115.85 33.7747 115.62 34.212C115.391 34.6493 115.068 34.9907 114.652 35.236C114.242 35.476 113.759 35.596 113.204 35.596ZM113.204 35.004C113.615 35.004 113.975 34.9133 114.284 34.732C114.599 34.5453 114.842 34.2813 115.012 33.94C115.188 33.5933 115.276 33.18 115.276 32.7C115.276 32.22 115.188 31.8093 115.012 31.468C114.842 31.1267 114.599 30.8653 114.284 30.684C113.975 30.4973 113.615 30.404 113.204 30.404C112.794 30.404 112.431 30.4973 112.116 30.684C111.807 30.8653 111.564 31.1267 111.388 31.468C111.218 31.8093 111.132 32.22 111.132 32.7C111.132 33.18 111.218 33.5933 111.388 33.94C111.564 34.2813 111.807 34.5453 112.116 34.732C112.431 34.9133 112.794 35.004 113.204 35.004ZM118.374 35.5V29.9H119.158L121.174 33.804L123.174 29.9H123.966V35.5H123.294V31.1L121.422 34.7H120.918L119.046 31.108V35.5H118.374ZM126.587 35.5V29.9H128.427C128.865 29.9 129.225 29.972 129.507 30.116C129.79 30.26 129.998 30.4547 130.131 30.7C130.27 30.9453 130.339 31.2227 130.339 31.532C130.339 31.836 130.273 32.1107 130.139 32.356C130.006 32.6013 129.798 32.7987 129.515 32.948C129.233 33.092 128.87 33.164 128.427 33.164H127.259V35.5H126.587ZM127.259 32.596H128.411C128.859 32.596 129.177 32.5027 129.363 32.316C129.555 32.124 129.651 31.8627 129.651 31.532C129.651 31.196 129.555 30.9347 129.363 30.748C129.177 30.556 128.859 30.46 128.411 30.46H127.259V32.596ZM132.66 35.5V29.9H133.332V34.964H135.94V35.5H132.66ZM138.303 35.5V29.9H141.767V30.452H138.975V32.404H141.527V32.948H138.975V34.948H141.767V35.5H138.303ZM143.971 35.5L145.683 32.676L143.971 29.9H144.731L146.107 32.14L147.419 29.9H148.171L146.459 32.708L148.179 35.5H147.419L146.035 33.252L144.731 35.5H143.971Z" fill="#121212"/>
</svg>
